<svg xmlns="http://www.w3.org/2000/svg" width="207.852" height="47.483" viewBox="0 0 207.852 47.483"><defs><style>.a{fill:#1a1818;}.b{font-size:12px;font-family:Roboto-Regular, Roboto;letter-spacing:0.14em;}.c{fill:none;}.c,.d{stroke:#000;stroke-linecap:round;stroke-linejoin:round;stroke-width:2px;}.d{fill:#fff;}</style></defs><g transform="translate(-35 -621.255)"><g transform="translate(35 622.255)"><g transform="translate(0)"><g transform="translate(0 0)"><path class="a" d="M246.9,719.9q0-4.053-2.222-5.972t-7.021-1.92H224.4v3.958l2.8,1.552v18.663h6.719v-8.319h2.31l4.479,8.319h7.75l-5.368-9.278Q246.9,725.2,246.9,719.9Zm-7.5,2.222a3.55,3.55,0,0,1-2.381.658h-3.093V717.3h3.093a3.622,3.622,0,0,1,2.381.64,3.294,3.294,0,0,1,0,4.177Z" transform="translate(-162.415 -711.581)"/><path class="a" d="M318.045,722.6a11.489,11.489,0,0,0-3.359-1.334l-2.6-.64a15.687,15.687,0,0,1-1.6-.533,1.841,1.841,0,0,1-1.031-.746,1.77,1.77,0,0,1-.214-.782,1.579,1.579,0,0,1,.836-1.493,5.426,5.426,0,0,1,2.541-.462,15.763,15.763,0,0,1,6.932,1.671V712.7a11.647,11.647,0,0,0-3.271-1.049,22.321,22.321,0,0,0-4.123-.373q-9.777,0-9.776,7.857a6.849,6.849,0,0,0,1.44,4.621,8.487,8.487,0,0,0,4.639,2.418l2.63.6a6.489,6.489,0,0,1,2.328.871,1.484,1.484,0,0,1,.622,1.226,1.7,1.7,0,0,1-.871,1.6,5.491,5.491,0,0,1-2.648.5,18.214,18.214,0,0,1-8.176-2.1v5.688a12.4,12.4,0,0,0,3.715,1.28,24.222,24.222,0,0,0,4.781.462q5.048,0,7.554-1.92t2.506-5.9a7.579,7.579,0,0,0-.764-3.661A6,6,0,0,0,318.045,722.6Z" transform="translate(-205.268 -711.273)"/><path class="a" d="M386.831,712.008v9.064h-7.252v-9.064h-9.522v3.959l2.8,1.552v18.662h6.719V726.8h7.252v9.384h6.719V712.008Z" transform="translate(-244.232 -711.581)"/><path class="a" d="M167.318,736.181h7.11l-8.389-24.173H153.864v3.959l2.642,1.462-6.535,18.752h6.719l.848-2.739h0l2.679-9.09,1.805-6.265,1.61,5.673h0l2.882,9.824h0Z" transform="translate(-120.56 -711.581)"/><path class="a" d="M92.19,717.447h10.842v-5.439H82.668v3.959l2.8,1.552v18.662H92.19v-8.887h9.456v-5.439H92.19Z" transform="translate(-82.668 -711.581)"/></g><text class="b" transform="translate(37.533 43.483)"><tspan x="-36.257" y="0">LOGISTICS</tspan></text><g transform="translate(165.293)"><path class="c" d="M293.339,401.2H267.455l1.9-23.45h22.8a2.645,2.645,0,0,1,2.639,2.831Z" transform="translate(-267.455 -377.754)"/><path class="c" d="M304.295,387.756h5.627l4.793,6.843h1.895a2.221,2.221,0,0,1,2.189,2.59l-1.129,6.682h-2.955" transform="translate(-277.278 -380.421)"/><circle class="d" cx="4.3" cy="4.3" r="4.3" transform="translate(28.837 19.15)"/><circle class="d" cx="4.3" cy="4.3" r="4.3" transform="translate(7.309 19.15)"/></g></g></g></g></svg>